<?xml version="1.0" encoding="UTF-8" standalone="no"?>
<!DOCTYPE svg PUBLIC "-//W3C//DTD SVG 1.1//EN"
 "http://www.w3.org/Graphics/SVG/1.1/DTD/svg11.dtd">
<!-- Generated by graphviz version 2.38.0 (20140413.2041)
 -->
<!-- Title: finite_state_machine Pages: 1 -->
<svg width="576pt" height="69pt"
 viewBox="0.00 0.00 576.00 69.15" xmlns="http://www.w3.org/2000/svg" xmlns:xlink="http://www.w3.org/1999/xlink">
<g id="graph0" class="graph" transform="scale(0.309485 0.309485) rotate(0) translate(4 219.433)">
<title>finite_state_machine</title>
<polygon fill="white" stroke="none" points="-4,4 -4,-219.433 1857.15,-219.433 1857.15,4 -4,4"/>
<!-- Init -->
<g id="node1" class="node"><title>Init</title>
<ellipse fill="none" stroke="black" cx="22.2486" cy="-27.4331" rx="18.4547" ry="18.4547"/>
<ellipse fill="none" stroke="black" cx="22.2486" cy="-27.4331" rx="22.4999" ry="22.4999"/>
<text text-anchor="middle" x="22.2486" y="-24.9331" font-family="Times,serif" font-size="10.00">Init</text>
</g>
<!-- Undocking -->
<g id="node2" class="node"><title>Undocking</title>
<ellipse fill="none" stroke="black" cx="118.583" cy="-74.4331" rx="37.1717" ry="37.1717"/>
<text text-anchor="middle" x="118.583" y="-71.9331" font-family="Times,serif" font-size="10.00">Undocking</text>
</g>
<!-- Init&#45;&gt;Undocking -->
<g id="edge1" class="edge"><title>Init&#45;&gt;Undocking</title>
<path fill="none" stroke="black" d="M42.7947,-37.1716C52.4185,-41.9664 64.4111,-47.9415 75.9548,-53.6929"/>
<polygon fill="black" stroke="black" points="74.5512,-56.9039 85.0626,-58.2307 77.6728,-50.6384 74.5512,-56.9039"/>
</g>
<!-- Undocked -->
<g id="node3" class="node"><title>Undocked</title>
<ellipse fill="none" stroke="black" cx="256.4" cy="-120.433" rx="34.9638" ry="34.9638"/>
<text text-anchor="middle" x="256.4" y="-117.933" font-family="Times,serif" font-size="10.00">Undocked</text>
</g>
<!-- Undocking&#45;&gt;Undocked -->
<g id="edge2" class="edge"><title>Undocking&#45;&gt;Undocked</title>
<path fill="none" stroke="black" d="M153.855,-86.0409C171.923,-92.1604 194.241,-99.7193 213.349,-106.191"/>
<polygon fill="black" stroke="black" points="212.414,-109.57 223.008,-109.462 214.66,-102.939 212.414,-109.57"/>
<text text-anchor="middle" x="188.669" y="-106.433" font-family="Times,serif" font-size="10.00">Station</text>
</g>
<!-- Warp_to_Ungated_Plex -->
<g id="node4" class="node"><title>Warp_to_Ungated_Plex</title>
<ellipse fill="none" stroke="black" cx="511.611" cy="-151.433" rx="36.5405" ry="36.5405"/>
<text text-anchor="middle" x="511.611" y="-159.933" font-family="Times,serif" font-size="10.00">Warp to</text>
<text text-anchor="middle" x="511.611" y="-148.933" font-family="Times,serif" font-size="10.00">Ungated</text>
<text text-anchor="middle" x="511.611" y="-137.933" font-family="Times,serif" font-size="10.00">Plex</text>
</g>
<!-- Undocked&#45;&gt;Warp_to_Ungated_Plex -->
<g id="edge3" class="edge"><title>Undocked&#45;&gt;Warp_to_Ungated_Plex</title>
<path fill="none" stroke="black" d="M290.765,-125.792C296.868,-126.716 303.186,-127.635 309.131,-128.433 362.415,-135.592 423.822,-142.394 464.701,-146.718"/>
<polygon fill="black" stroke="black" points="464.58,-150.224 474.891,-147.789 465.312,-143.263 464.58,-150.224"/>
<text text-anchor="middle" x="338.631" y="-139.433" font-family="Times,serif" font-size="10.00">Ungated Plex</text>
</g>
<!-- Warp_to_Gated_Plex -->
<g id="node7" class="node"><title>Warp_to_Gated_Plex</title>
<ellipse fill="none" stroke="black" cx="421.486" cy="-85.4331" rx="35.2113" ry="35.2113"/>
<text text-anchor="middle" x="421.486" y="-93.9331" font-family="Times,serif" font-size="10.00">Warp to</text>
<text text-anchor="middle" x="421.486" y="-82.9331" font-family="Times,serif" font-size="10.00">Gated</text>
<text text-anchor="middle" x="421.486" y="-71.9331" font-family="Times,serif" font-size="10.00">Plex</text>
</g>
<!-- Undocked&#45;&gt;Warp_to_Gated_Plex -->
<g id="edge14" class="edge"><title>Undocked&#45;&gt;Warp_to_Gated_Plex</title>
<path fill="none" stroke="black" d="M287.048,-103.861C294.099,-100.558 301.728,-97.4808 309.131,-95.4331 330.576,-89.5011 355.144,-86.8764 375.737,-85.7867"/>
<polygon fill="black" stroke="black" points="375.959,-89.2805 385.801,-85.3572 375.66,-82.2869 375.959,-89.2805"/>
<text text-anchor="middle" x="338.631" y="-120.433" font-family="Times,serif" font-size="10.00">!Ungated Plex</text>
<text text-anchor="middle" x="338.631" y="-109.433" font-family="Times,serif" font-size="10.00">&amp;</text>
<text text-anchor="middle" x="338.631" y="-98.4331" font-family="Times,serif" font-size="10.00">Gated Plex</text>
</g>
<!-- Warping_to_Ungated_Plex -->
<g id="node5" class="node"><title>Warping_to_Ungated_Plex</title>
<ellipse fill="none" stroke="black" cx="1087.35" cy="-134.433" rx="37.4533" ry="37.4533"/>
<text text-anchor="middle" x="1087.35" y="-148.433" font-family="Times,serif" font-size="10.00">Warping</text>
<text text-anchor="middle" x="1087.35" y="-137.433" font-family="Times,serif" font-size="10.00">to</text>
<text text-anchor="middle" x="1087.35" y="-126.433" font-family="Times,serif" font-size="10.00">Ungated</text>
<text text-anchor="middle" x="1087.35" y="-115.433" font-family="Times,serif" font-size="10.00">Plex</text>
</g>
<!-- Warp_to_Ungated_Plex&#45;&gt;Warping_to_Ungated_Plex -->
<g id="edge4" class="edge"><title>Warp_to_Ungated_Plex&#45;&gt;Warping_to_Ungated_Plex</title>
<path fill="none" stroke="black" d="M548.459,-153.315C585.104,-155.075 643.67,-157.433 694.334,-157.433 694.334,-157.433 694.334,-157.433 922.873,-157.433 962.83,-157.433 1007.75,-150.612 1040.38,-144.399"/>
<polygon fill="black" stroke="black" points="1041.37,-147.77 1050.52,-142.413 1040.03,-140.901 1041.37,-147.77"/>
<text text-anchor="middle" x="786.104" y="-160.433" font-family="Times,serif" font-size="10.00">Command Sent</text>
</g>
<!-- Landed_in_Ungated_Plex -->
<g id="node6" class="node"><title>Landed_in_Ungated_Plex</title>
<ellipse fill="none" stroke="black" cx="1269.6" cy="-134.433" rx="36.5405" ry="36.5405"/>
<text text-anchor="middle" x="1269.6" y="-148.433" font-family="Times,serif" font-size="10.00">Landed</text>
<text text-anchor="middle" x="1269.6" y="-137.433" font-family="Times,serif" font-size="10.00">in</text>
<text text-anchor="middle" x="1269.6" y="-126.433" font-family="Times,serif" font-size="10.00">Ungated</text>
<text text-anchor="middle" x="1269.6" y="-115.433" font-family="Times,serif" font-size="10.00">Plex</text>
</g>
<!-- Warping_to_Ungated_Plex&#45;&gt;Landed_in_Ungated_Plex -->
<g id="edge5" class="edge"><title>Warping_to_Ungated_Plex&#45;&gt;Landed_in_Ungated_Plex</title>
<path fill="none" stroke="black" d="M1125.26,-134.433C1153.36,-134.433 1192.21,-134.433 1222.38,-134.433"/>
<polygon fill="black" stroke="black" points="1222.66,-137.933 1232.66,-134.433 1222.66,-130.933 1222.66,-137.933"/>
<text text-anchor="middle" x="1178.83" y="-137.433" font-family="Times,serif" font-size="10.00">Station Dockable</text>
</g>
<!-- Landed_in_Ungated_Plex&#45;&gt;Undocked -->
<g id="edge6" class="edge"><title>Landed_in_Ungated_Plex&#45;&gt;Undocked</title>
<path fill="none" stroke="black" d="M1238.4,-154.118C1203.68,-174.823 1144.24,-204.433 1088.35,-204.433 420.486,-204.433 420.486,-204.433 420.486,-204.433 371.223,-204.433 321.953,-173.767 290.668,-149.493"/>
<polygon fill="black" stroke="black" points="292.727,-146.658 282.725,-143.165 288.366,-152.133 292.727,-146.658"/>
<text text-anchor="middle" x="786.104" y="-207.433" font-family="Times,serif" font-size="10.00">Plex completed</text>
</g>
<!-- Align_Station -->
<g id="node11" class="node"><title>Align_Station</title>
<ellipse fill="none" stroke="black" cx="1405.89" cy="-151.433" rx="32.5538" ry="32.5538"/>
<text text-anchor="middle" x="1405.89" y="-154.433" font-family="Times,serif" font-size="10.00">Align</text>
<text text-anchor="middle" x="1405.89" y="-143.433" font-family="Times,serif" font-size="10.00">Station</text>
</g>
<!-- Landed_in_Ungated_Plex&#45;&gt;Align_Station -->
<g id="edge7" class="edge"><title>Landed_in_Ungated_Plex&#45;&gt;Align_Station</title>
<path fill="none" stroke="black" d="M1305.59,-126.768C1321.01,-124.611 1339.25,-123.733 1355.37,-127.433 1359.56,-128.395 1363.8,-129.76 1367.96,-131.357"/>
<polygon fill="black" stroke="black" points="1366.85,-134.689 1377.42,-135.424 1369.61,-128.258 1366.85,-134.689"/>
<text text-anchor="middle" x="1339.87" y="-130.433" font-family="Times,serif" font-size="10.00">DScan</text>
</g>
<!-- Dock -->
<g id="node12" class="node"><title>Dock</title>
<ellipse fill="none" stroke="black" cx="1528.38" cy="-86.4331" rx="22.9158" ry="22.9158"/>
<text text-anchor="middle" x="1528.38" y="-83.9331" font-family="Times,serif" font-size="10.00">Dock</text>
</g>
<!-- Landed_in_Ungated_Plex&#45;&gt;Dock -->
<g id="edge10" class="edge"><title>Landed_in_Ungated_Plex&#45;&gt;Dock</title>
<path fill="none" stroke="black" d="M1303.76,-120.351C1323.59,-112.556 1349.5,-103.454 1373.37,-98.4331 1414.68,-89.7407 1463.43,-87.2013 1494.84,-86.5343"/>
<polygon fill="black" stroke="black" points="1495.25,-90.0284 1505.19,-86.3695 1495.13,-83.0293 1495.25,-90.0284"/>
<text text-anchor="middle" x="1405.89" y="-101.433" font-family="Times,serif" font-size="10.00">Hostile</text>
</g>
<!-- Warping_to_Gated_Plex -->
<g id="node8" class="node"><title>Warping_to_Gated_Plex</title>
<ellipse fill="none" stroke="black" cx="603.857" cy="-84.4331" rx="37.4533" ry="37.4533"/>
<text text-anchor="middle" x="603.857" y="-98.4331" font-family="Times,serif" font-size="10.00">Warping</text>
<text text-anchor="middle" x="603.857" y="-87.4331" font-family="Times,serif" font-size="10.00">to</text>
<text text-anchor="middle" x="603.857" y="-76.4331" font-family="Times,serif" font-size="10.00">Gated</text>
<text text-anchor="middle" x="603.857" y="-65.4331" font-family="Times,serif" font-size="10.00">Plex</text>
</g>
<!-- Warp_to_Gated_Plex&#45;&gt;Warping_to_Gated_Plex -->
<g id="edge15" class="edge"><title>Warp_to_Gated_Plex&#45;&gt;Warping_to_Gated_Plex</title>
<path fill="none" stroke="black" d="M457.264,-85.2403C485.407,-85.0843 525.305,-84.8631 556.22,-84.6917"/>
<polygon fill="black" stroke="black" points="556.349,-88.1911 566.329,-84.6357 556.31,-81.1913 556.349,-88.1911"/>
<text text-anchor="middle" x="511.611" y="-88.4331" font-family="Times,serif" font-size="10.00">Command Sent</text>
</g>
<!-- Landed_in_Gated_Plex -->
<g id="node9" class="node"><title>Landed_in_Gated_Plex</title>
<ellipse fill="none" stroke="black" cx="786.104" cy="-84.4331" rx="36.5405" ry="36.5405"/>
<text text-anchor="middle" x="786.104" y="-98.4331" font-family="Times,serif" font-size="10.00">Landed</text>
<text text-anchor="middle" x="786.104" y="-87.4331" font-family="Times,serif" font-size="10.00">in</text>
<text text-anchor="middle" x="786.104" y="-76.4331" font-family="Times,serif" font-size="10.00">Gated</text>
<text text-anchor="middle" x="786.104" y="-65.4331" font-family="Times,serif" font-size="10.00">Plex</text>
</g>
<!-- Warping_to_Gated_Plex&#45;&gt;Landed_in_Gated_Plex -->
<g id="edge16" class="edge"><title>Warping_to_Gated_Plex&#45;&gt;Landed_in_Gated_Plex</title>
<path fill="none" stroke="black" d="M641.768,-84.4331C669.868,-84.4331 708.722,-84.4331 738.889,-84.4331"/>
<polygon fill="black" stroke="black" points="739.165,-87.9332 749.165,-84.4331 739.165,-80.9332 739.165,-87.9332"/>
<text text-anchor="middle" x="695.334" y="-87.4331" font-family="Times,serif" font-size="10.00">Station Dockable</text>
</g>
<!-- Take_Gated_plex -->
<g id="node10" class="node"><title>Take_Gated_plex</title>
<ellipse fill="none" stroke="black" cx="921.873" cy="-100.433" rx="28.9828" ry="28.9828"/>
<text text-anchor="middle" x="921.873" y="-108.933" font-family="Times,serif" font-size="10.00">Take</text>
<text text-anchor="middle" x="921.873" y="-97.9331" font-family="Times,serif" font-size="10.00">Gated</text>
<text text-anchor="middle" x="921.873" y="-86.9331" font-family="Times,serif" font-size="10.00">Plex</text>
</g>
<!-- Landed_in_Gated_Plex&#45;&gt;Take_Gated_plex -->
<g id="edge17" class="edge"><title>Landed_in_Gated_Plex&#45;&gt;Take_Gated_plex</title>
<path fill="none" stroke="black" d="M822.951,-88.7209C841.496,-90.939 864.131,-93.6463 882.966,-95.8991"/>
<polygon fill="black" stroke="black" points="882.643,-99.3854 892.988,-97.0979 883.475,-92.435 882.643,-99.3854"/>
<text text-anchor="middle" x="857.873" y="-98.4331" font-family="Times,serif" font-size="10.00">!Hostile</text>
</g>
<!-- Landed_in_Gated_Plex&#45;&gt;Dock -->
<g id="edge19" class="edge"><title>Landed_in_Gated_Plex&#45;&gt;Dock</title>
<path fill="none" stroke="black" d="M819.515,-68.5815C846.095,-57.0441 885.045,-43.4331 920.873,-43.4331 920.873,-43.4331 920.873,-43.4331 1406.89,-43.4331 1439.88,-43.4331 1475.15,-57.9091 1498.95,-70.0627"/>
<polygon fill="black" stroke="black" points="1497.62,-73.32 1508.09,-74.9099 1500.9,-67.1348 1497.62,-73.32"/>
<text text-anchor="middle" x="1178.83" y="-46.4331" font-family="Times,serif" font-size="10.00">Hostile</text>
</g>
<!-- Take_Gated_plex&#45;&gt;Warping_to_Ungated_Plex -->
<g id="edge18" class="edge"><title>Take_Gated_plex&#45;&gt;Warping_to_Ungated_Plex</title>
<path fill="none" stroke="black" d="M950.605,-106.201C975.214,-111.319 1011.64,-118.896 1040.57,-124.912"/>
<polygon fill="black" stroke="black" points="1039.96,-128.359 1050.46,-126.968 1041.38,-121.505 1039.96,-128.359"/>
<text text-anchor="middle" x="1000.37" y="-126.433" font-family="Times,serif" font-size="10.00">Command Sent</text>
</g>
<!-- Align_Station&#45;&gt;Landed_in_Ungated_Plex -->
<g id="edge9" class="edge"><title>Align_Station&#45;&gt;Landed_in_Ungated_Plex</title>
<path fill="none" stroke="black" d="M1373.22,-147.424C1356.25,-145.276 1335.05,-142.593 1316.33,-140.223"/>
<polygon fill="black" stroke="black" points="1316.59,-136.728 1306.23,-138.944 1315.71,-143.672 1316.59,-136.728"/>
<text text-anchor="middle" x="1339.87" y="-148.433" font-family="Times,serif" font-size="10.00">!DScan</text>
</g>
<!-- Align_Station&#45;&gt;Dock -->
<g id="edge8" class="edge"><title>Align_Station&#45;&gt;Dock</title>
<path fill="none" stroke="black" d="M1434.84,-136.357C1454.07,-125.98 1479.55,-112.236 1498.9,-101.797"/>
<polygon fill="black" stroke="black" points="1500.71,-104.795 1507.85,-96.9669 1497.39,-98.6346 1500.71,-104.795"/>
<text text-anchor="middle" x="1471.92" y="-126.433" font-family="Times,serif" font-size="10.00">Hostile</text>
</g>
<!-- Warping_to_Station -->
<g id="node13" class="node"><title>Warping_to_Station</title>
<ellipse fill="none" stroke="black" cx="1687.81" cy="-71.4331" rx="37.4533" ry="37.4533"/>
<text text-anchor="middle" x="1687.81" y="-79.9331" font-family="Times,serif" font-size="10.00">Warping</text>
<text text-anchor="middle" x="1687.81" y="-68.9331" font-family="Times,serif" font-size="10.00">to</text>
<text text-anchor="middle" x="1687.81" y="-57.9331" font-family="Times,serif" font-size="10.00">Station</text>
</g>
<!-- Dock&#45;&gt;Warping_to_Station -->
<g id="edge11" class="edge"><title>Dock&#45;&gt;Warping_to_Station</title>
<path fill="none" stroke="black" d="M1551.27,-84.3475C1574.17,-82.1656 1610.81,-78.6746 1640.22,-75.8721"/>
<polygon fill="black" stroke="black" points="1640.67,-79.3455 1650.29,-74.9127 1640,-72.3771 1640.67,-79.3455"/>
<text text-anchor="middle" x="1600.84" y="-85.4331" font-family="Times,serif" font-size="10.00">Command Sent</text>
</g>
<!-- Waiting -->
<g id="node14" class="node"><title>Waiting</title>
<ellipse fill="none" stroke="black" cx="1823.72" cy="-29.4331" rx="29.3664" ry="29.3664"/>
<text text-anchor="middle" x="1823.72" y="-26.9331" font-family="Times,serif" font-size="10.00">Waiting</text>
</g>
<!-- Warping_to_Station&#45;&gt;Waiting -->
<g id="edge12" class="edge"><title>Warping_to_Station&#45;&gt;Waiting</title>
<path fill="none" stroke="black" d="M1723.99,-60.3981C1743,-54.4375 1766.45,-47.0824 1785.73,-41.0365"/>
<polygon fill="black" stroke="black" points="1786.89,-44.3408 1795.38,-38.0084 1784.79,-37.6616 1786.89,-44.3408"/>
<text text-anchor="middle" x="1759.79" y="-57.4331" font-family="Times,serif" font-size="10.00">Docked</text>
</g>
<!-- Waiting&#45;&gt;Init -->
<g id="edge13" class="edge"><title>Waiting&#45;&gt;Init</title>
<path fill="none" stroke="black" d="M1795.3,-21.2472C1768.43,-13.9562 1726.18,-4.43315 1688.81,-4.43315 117.583,-4.43315 117.583,-4.43315 117.583,-4.43315 95.3945,-4.43315 71.0846,-10.5134 52.7005,-16.4215"/>
<polygon fill="black" stroke="black" points="51.5031,-13.1317 43.1479,-19.6464 53.7421,-19.7639 51.5031,-13.1317"/>
<text text-anchor="middle" x="921.873" y="-7.43315" font-family="Times,serif" font-size="10.00">Timer elapsed</text>
</g>
</g>
</svg>
