<?xml version="1.0" encoding="UTF-8" standalone="no"?>
<!DOCTYPE svg PUBLIC "-//W3C//DTD SVG 1.1//EN"
 "http://www.w3.org/Graphics/SVG/1.1/DTD/svg11.dtd">
<!-- Generated by graphviz version 2.38.0 (20140413.2041)
 -->
<!-- Title: finite_state_machine Pages: 1 -->
<svg width="576pt" height="137pt"
 viewBox="0.00 0.00 576.00 137.43" xmlns="http://www.w3.org/2000/svg" xmlns:xlink="http://www.w3.org/1999/xlink">
<g id="graph0" class="graph" transform="scale(0.608104 0.608104) rotate(0) translate(4 222)">
<title>finite_state_machine</title>
<polygon fill="white" stroke="none" points="-4,4 -4,-222 943.206,-222 943.206,4 -4,4"/>
<!-- Init -->
<g id="node1" class="node"><title>Init</title>
<ellipse fill="none" stroke="black" cx="22.2486" cy="-61" rx="18.4547" ry="18.4547"/>
<ellipse fill="none" stroke="black" cx="22.2486" cy="-61" rx="22.4999" ry="22.4999"/>
<text text-anchor="middle" x="22.2486" y="-58.5" font-family="Times,serif" font-size="10.00">Init</text>
</g>
<!-- Warp_to_anom -->
<g id="node2" class="node"><title>Warp_to_anom</title>
<ellipse fill="none" stroke="black" cx="135.488" cy="-99" rx="28.9828" ry="28.9828"/>
<text text-anchor="middle" x="135.488" y="-107.5" font-family="Times,serif" font-size="10.00">Warp</text>
<text text-anchor="middle" x="135.488" y="-96.5" font-family="Times,serif" font-size="10.00">to</text>
<text text-anchor="middle" x="135.488" y="-85.5" font-family="Times,serif" font-size="10.00">anom</text>
</g>
<!-- Init&#45;&gt;Warp_to_anom -->
<g id="edge1" class="edge"><title>Init&#45;&gt;Warp_to_anom</title>
<path fill="none" stroke="black" d="M43.6517,-67.9698C58.8933,-73.1764 80.1286,-80.4305 98.2351,-86.6157"/>
<polygon fill="black" stroke="black" points="97.3199,-90.0016 107.914,-89.9222 99.5828,-83.3774 97.3199,-90.0016"/>
<text text-anchor="middle" x="75.4971" y="-87" font-family="Times,serif" font-size="10.00">Anom</text>
</g>
<!-- Launch_drones -->
<g id="node3" class="node"><title>Launch_drones</title>
<ellipse fill="none" stroke="black" cx="276.714" cy="-99" rx="33.4697" ry="33.4697"/>
<text text-anchor="middle" x="276.714" y="-102" font-family="Times,serif" font-size="10.00">Launch</text>
<text text-anchor="middle" x="276.714" y="-91" font-family="Times,serif" font-size="10.00">drones</text>
</g>
<!-- Warp_to_anom&#45;&gt;Launch_drones -->
<g id="edge2" class="edge"><title>Warp_to_anom&#45;&gt;Launch_drones</title>
<path fill="none" stroke="black" d="M164.663,-99C184.349,-99 210.987,-99 233.239,-99"/>
<polygon fill="black" stroke="black" points="233.437,-102.5 243.437,-99 233.436,-95.5001 233.437,-102.5"/>
<text text-anchor="middle" x="203.98" y="-113" font-family="Times,serif" font-size="10.00">Core</text>
<text text-anchor="middle" x="203.98" y="-102" font-family="Times,serif" font-size="10.00">!Occupied</text>
</g>
<!-- Check_anom -->
<g id="node10" class="node"><title>Check_anom</title>
<ellipse fill="none" stroke="black" cx="276.714" cy="-181" rx="30.3115" ry="30.3115"/>
<text text-anchor="middle" x="276.714" y="-184" font-family="Times,serif" font-size="10.00">Check</text>
<text text-anchor="middle" x="276.714" y="-173" font-family="Times,serif" font-size="10.00">Anom</text>
</g>
<!-- Warp_to_anom&#45;&gt;Check_anom -->
<g id="edge7" class="edge"><title>Warp_to_anom&#45;&gt;Check_anom</title>
<path fill="none" stroke="black" d="M160.74,-113.283C182.944,-126.361 216.053,-145.861 241.047,-160.582"/>
<polygon fill="black" stroke="black" points="239.46,-163.709 249.853,-165.769 243.013,-157.678 239.46,-163.709"/>
<text text-anchor="middle" x="203.98" y="-153" font-family="Times,serif" font-size="10.00">Occupied</text>
</g>
<!-- Wait_wreck -->
<g id="node4" class="node"><title>Wait_wreck</title>
<ellipse fill="none" stroke="black" cx="419.939" cy="-99" rx="28.9828" ry="28.9828"/>
<text text-anchor="middle" x="419.939" y="-102" font-family="Times,serif" font-size="10.00">Wait</text>
<text text-anchor="middle" x="419.939" y="-91" font-family="Times,serif" font-size="10.00">wreck</text>
</g>
<!-- Launch_drones&#45;&gt;Wait_wreck -->
<g id="edge3" class="edge"><title>Launch_drones&#45;&gt;Wait_wreck</title>
<path fill="none" stroke="black" d="M310.114,-99C331.064,-99 358.435,-99 380.486,-99"/>
<polygon fill="black" stroke="black" points="380.516,-102.5 390.516,-99 380.515,-95.5001 380.516,-102.5"/>
<text text-anchor="middle" x="350.448" y="-102" font-family="Times,serif" font-size="10.00">Idle</text>
</g>
<!-- Farming -->
<g id="node5" class="node"><title>Farming</title>
<ellipse fill="none" stroke="black" cx="548.364" cy="-95" rx="29.3664" ry="29.3664"/>
<text text-anchor="middle" x="548.364" y="-92.5" font-family="Times,serif" font-size="10.00">Farming</text>
</g>
<!-- Wait_wreck&#45;&gt;Farming -->
<g id="edge4" class="edge"><title>Wait_wreck&#45;&gt;Farming</title>
<path fill="none" stroke="black" d="M448.997,-98.1123C466.429,-97.5607 489.09,-96.8438 508.268,-96.237"/>
<polygon fill="black" stroke="black" points="508.624,-99.7276 518.508,-95.913 508.402,-92.7311 508.624,-99.7276"/>
<text text-anchor="middle" x="483.931" y="-101" font-family="Times,serif" font-size="10.00">Core</text>
</g>
<!-- Align -->
<g id="node7" class="node"><title>Align</title>
<ellipse fill="none" stroke="black" cx="675.91" cy="-149" rx="24.2711" ry="24.2711"/>
<text text-anchor="middle" x="675.91" y="-146.5" font-family="Times,serif" font-size="10.00">Align</text>
</g>
<!-- Wait_wreck&#45;&gt;Align -->
<g id="edge10" class="edge"><title>Wait_wreck&#45;&gt;Align</title>
<path fill="none" stroke="black" d="M447.146,-109.635C466.649,-117.169 494.081,-126.97 518.931,-133 552.468,-141.138 561.468,-140.464 595.797,-144 610.742,-145.539 627.328,-146.675 641.438,-147.471"/>
<polygon fill="black" stroke="black" points="641.505,-150.98 651.676,-148.015 641.876,-143.99 641.505,-150.98"/>
<text text-anchor="middle" x="548.364" y="-146" font-family="Times,serif" font-size="10.00">Hostile</text>
</g>
<!-- Scoop_drones -->
<g id="node6" class="node"><title>Scoop_drones</title>
<ellipse fill="none" stroke="black" cx="675.91" cy="-65" rx="31.2258" ry="31.2258"/>
<text text-anchor="middle" x="675.91" y="-68" font-family="Times,serif" font-size="10.00">Scoop</text>
<text text-anchor="middle" x="675.91" y="-57" font-family="Times,serif" font-size="10.00">drones</text>
</g>
<!-- Farming&#45;&gt;Scoop_drones -->
<g id="edge5" class="edge"><title>Farming&#45;&gt;Scoop_drones</title>
<path fill="none" stroke="black" d="M577.226,-88.342C594.372,-84.245 616.613,-78.9304 635.54,-74.4076"/>
<polygon fill="black" stroke="black" points="636.463,-77.7857 645.376,-72.0574 634.836,-70.9774 636.463,-77.7857"/>
<text text-anchor="middle" x="611.297" y="-87" font-family="Times,serif" font-size="10.00">!Core</text>
</g>
<!-- Farming&#45;&gt;Align -->
<g id="edge11" class="edge"><title>Farming&#45;&gt;Align</title>
<path fill="none" stroke="black" d="M575.682,-106.32C595.545,-114.864 622.861,-126.613 643.804,-135.621"/>
<polygon fill="black" stroke="black" points="642.651,-138.935 653.22,-139.671 645.417,-132.504 642.651,-138.935"/>
<text text-anchor="middle" x="611.297" y="-132" font-family="Times,serif" font-size="10.00">Hostile</text>
</g>
<!-- Scoop_drones&#45;&gt;Init -->
<g id="edge6" class="edge"><title>Scoop_drones&#45;&gt;Init</title>
<path fill="none" stroke="black" d="M646.363,-55.2524C621.157,-47.5186 583.251,-38 549.364,-38 134.488,-38 134.488,-38 134.488,-38 106.568,-38 75.5067,-45.0346 53.3182,-51.323"/>
<polygon fill="black" stroke="black" points="52.0915,-48.0357 43.4914,-54.2236 54.0732,-54.7494 52.0915,-48.0357"/>
<text text-anchor="middle" x="350.448" y="-41" font-family="Times,serif" font-size="10.00">!Returning</text>
</g>
<!-- Warp_off -->
<g id="node8" class="node"><title>Warp_off</title>
<ellipse fill="none" stroke="black" cx="810.6" cy="-149" rx="27.6545" ry="27.6545"/>
<text text-anchor="middle" x="810.6" y="-152" font-family="Times,serif" font-size="10.00">Warp</text>
<text text-anchor="middle" x="810.6" y="-141" font-family="Times,serif" font-size="10.00">off</text>
</g>
<!-- Align&#45;&gt;Warp_off -->
<g id="edge12" class="edge"><title>Align&#45;&gt;Warp_off</title>
<path fill="none" stroke="black" d="M700.326,-149C720.327,-149 749.45,-149 772.601,-149"/>
<polygon fill="black" stroke="black" points="772.764,-152.5 782.764,-149 772.764,-145.5 772.764,-152.5"/>
<text text-anchor="middle" x="745.022" y="-152" font-family="Times,serif" font-size="10.00">Drones in</text>
</g>
<!-- Safe -->
<g id="node9" class="node"><title>Safe</title>
<ellipse fill="none" stroke="black" cx="919.191" cy="-45" rx="20.0291" ry="20.0291"/>
<text text-anchor="middle" x="919.191" y="-42.5" font-family="Times,serif" font-size="10.00">Safe</text>
</g>
<!-- Warp_off&#45;&gt;Safe -->
<g id="edge13" class="edge"><title>Warp_off&#45;&gt;Safe</title>
<path fill="none" stroke="black" d="M831.15,-129.925C849.744,-111.783 877.647,-84.558 896.821,-65.8508"/>
<polygon fill="black" stroke="black" points="899.488,-68.1383 904.201,-58.6496 894.6,-63.128 899.488,-68.1383"/>
<text text-anchor="middle" x="868.677" y="-107" font-family="Times,serif" font-size="10.00">Delay</text>
</g>
<!-- Safe&#45;&gt;Init -->
<g id="edge14" class="edge"><title>Safe&#45;&gt;Init</title>
<path fill="none" stroke="black" d="M902.453,-33.6446C882.39,-20.3137 846.149,-0 811.6,-0 134.488,-0 134.488,-0 134.488,-0 100.85,-0 67.7556,-21.711 46.529,-39.2279"/>
<polygon fill="black" stroke="black" points="44.0389,-36.7527 38.7298,-45.9213 48.5977,-42.0647 44.0389,-36.7527"/>
<text text-anchor="middle" x="483.931" y="-3" font-family="Times,serif" font-size="10.00">!Hostile</text>
</g>
<!-- Check_anom&#45;&gt;Init -->
<g id="edge8" class="edge"><title>Check_anom&#45;&gt;Init</title>
<path fill="none" stroke="black" d="M246.356,-178.225C211.087,-173.837 151.102,-162.949 106.497,-137 82.802,-123.215 60.1127,-101.761 44.423,-85.158"/>
<polygon fill="black" stroke="black" points="46.6641,-82.4257 37.3094,-77.4518 41.5206,-87.1738 46.6641,-82.4257"/>
<text text-anchor="middle" x="135.488" y="-165" font-family="Times,serif" font-size="10.00">Anom</text>
</g>
<!-- Check_anom&#45;&gt;Warp_off -->
<g id="edge9" class="edge"><title>Check_anom&#45;&gt;Warp_off</title>
<path fill="none" stroke="black" d="M306.103,-189.37C334.421,-196.97 379.3,-207 418.939,-207 418.939,-207 418.939,-207 676.91,-207 714.467,-207 753.375,-187.25 779.269,-170.799"/>
<polygon fill="black" stroke="black" points="781.425,-173.571 787.862,-165.156 777.582,-167.72 781.425,-173.571"/>
<text text-anchor="middle" x="548.364" y="-210" font-family="Times,serif" font-size="10.00">!Anom</text>
</g>
</g>
</svg>
